#N canvas 0 32 1920 977 12;
#X obj 545 149 hsl 170 20 0 127 0 0 empty empty empty -2 -10 0 12 #fcfcfc #000000 #000000 0 1;
#X obj 542 174 mtof;
#X obj 542 199 pack 0 20;
#N canvas 0 32 1920 977 scale 0;
#X obj 1043 129 inlet;
#X obj 971 440 r minor;
#X obj 1043 157 tgl 20 0 empty empty empty 0 -10 0 12 #fcfcfc #000000 #000000 0 1;
#X floatatom 807 411 5 0 0 0 - - - 0;
#X obj 1043 207 f;
#X obj 1082 208 + 1;
#X obj 807 440 hradio 20 1 0 8 empty empty empty 0 -10 0 12 #fcfcfc #000000 #000000 0;
#X obj 381 588 +;
#X floatatom 381 621 5 0 0 0 - - - 0;
#X msg 365 545 69;
#X floatatom 960 536 3 0 0 0 - - - 0;
#X floatatom 990 536 3 0 0 0 - - - 0;
#X floatatom 1020 536 3 0 0 0 - - - 0;
#X floatatom 1050 536 3 0 0 0 - - - 0;
#X floatatom 1080 536 3 0 0 0 - - - 0;
#X floatatom 1110 536 3 0 0 0 - - - 0;
#X obj 1043 182 metro 500;
#X obj 807 465 sel 0 1 2 3 4 5 6 7;
#X obj 807 386 mod 8;
#X obj 971 468 unpack f f f f f f;
#X msg 925 535 0;
#X msg 1137 537 12;
#X obj 526 177 loadbang;
#X obj 1485 200 random 8;
#X obj 1445 266 +;
#X obj 1485 233 t b f;
#X obj 1445 291 mod 8;
#X floatatom 1445 316 5 0 0 0 - - - 0;
#X obj 1655 200 random 8;
#X obj 1615 266 +;
#X obj 1655 233 t b f;
#X obj 1615 291 mod 8;
#X floatatom 1615 316 5 0 0 0 - - - 0;
#X obj 435 553 t b f;
#X obj 1043 236 s note-counter;
#X obj 1485 133 r note-counter;
#X obj 1485 158 t b f;
#X obj 381 645 outlet;
#X obj 365 517 loadbang;
#X msg 526 203 \; minor 2 3 5 7 8 10;
#X obj 1366 469 r minor;
#X obj 1202 469 hradio 20 1 0 8 empty empty empty 0 -10 0 12 #fcfcfc #000000 #000000 0;
#X floatatom 1355 565 3 0 0 0 - - - 0;
#X floatatom 1385 565 3 0 0 0 - - - 0;
#X floatatom 1415 565 3 0 0 0 - - - 0;
#X floatatom 1445 565 3 0 0 0 - - - 0;
#X floatatom 1475 565 3 0 0 0 - - - 0;
#X floatatom 1505 565 3 0 0 0 - - - 0;
#X obj 1202 494 sel 0 1 2 3 4 5 6 7;
#X obj 1366 497 unpack f f f f f f;
#X msg 1320 564 0;
#X msg 1532 566 12;
#X obj 1410 621 s offset0;
#X obj 1676 469 r minor;
#X obj 1512 469 hradio 20 1 0 8 empty empty empty 0 -10 0 12 #fcfcfc #000000 #000000 0;
#X floatatom 1665 565 3 0 0 0 - - - 0;
#X floatatom 1695 565 3 0 0 0 - - - 0;
#X floatatom 1725 565 3 0 0 0 - - - 0;
#X floatatom 1755 565 3 0 0 0 - - - 0;
#X floatatom 1785 565 3 0 0 0 - - - 0;
#X floatatom 1815 565 3 0 0 0 - - - 0;
#X obj 1512 494 sel 0 1 2 3 4 5 6 7;
#X obj 1676 497 unpack f f f f f f;
#X msg 1630 564 0;
#X msg 1842 566 12;
#X obj 471 588 +;
#X floatatom 471 621 5 0 0 0 - - - 0;
#X obj 525 553 t b f;
#X obj 471 645 outlet;
#X obj 435 528 r offset0;
#X obj 1720 621 s offset1;
#X obj 525 528 r offset1;
#X obj 807 360 r note-counter;
#X obj 1013 610 s offset-scale;
#X connect 0 0 2 0;
#X connect 1 0 19 0;
#X connect 2 0 16 0;
#X connect 3 0 6 0;
#X connect 4 0 5 0;
#X connect 4 0 34 0;
#X connect 5 0 4 1;
#X connect 6 0 17 0;
#X connect 7 0 8 0;
#X connect 8 0 37 0;
#X connect 9 0 7 0;
#X connect 9 0 65 0;
#X connect 10 0 73 0;
#X connect 11 0 73 0;
#X connect 12 0 73 0;
#X connect 13 0 73 0;
#X connect 14 0 73 0;
#X connect 15 0 73 0;
#X connect 16 0 4 0;
#X connect 17 0 20 0;
#X connect 17 1 10 0;
#X connect 17 2 11 0;
#X connect 17 3 12 0;
#X connect 17 4 13 0;
#X connect 17 5 14 0;
#X connect 17 6 15 0;
#X connect 17 7 21 0;
#X connect 18 0 3 0;
#X connect 19 0 10 0;
#X connect 19 1 11 0;
#X connect 19 2 12 0;
#X connect 19 3 13 0;
#X connect 19 4 14 0;
#X connect 19 5 15 0;
#X connect 20 0 73 0;
#X connect 21 0 73 0;
#X connect 22 0 39 0;
#X connect 23 0 25 0;
#X connect 24 0 26 0;
#X connect 25 0 24 0;
#X connect 25 1 24 1;
#X connect 26 0 27 0;
#X connect 27 0 41 0;
#X connect 28 0 30 0;
#X connect 29 0 31 0;
#X connect 30 0 29 0;
#X connect 30 1 29 1;
#X connect 31 0 32 0;
#X connect 32 0 54 0;
#X connect 33 0 7 0;
#X connect 33 1 7 1;
#X connect 35 0 36 0;
#X connect 36 0 23 0;
#X connect 36 0 28 0;
#X connect 36 1 24 0;
#X connect 36 1 29 0;
#X connect 38 0 9 0;
#X connect 40 0 49 0;
#X connect 41 0 48 0;
#X connect 42 0 52 0;
#X connect 43 0 52 0;
#X connect 44 0 52 0;
#X connect 45 0 52 0;
#X connect 46 0 52 0;
#X connect 47 0 52 0;
#X connect 48 0 50 0;
#X connect 48 1 42 0;
#X connect 48 2 43 0;
#X connect 48 3 44 0;
#X connect 48 4 45 0;
#X connect 48 5 46 0;
#X connect 48 6 47 0;
#X connect 48 7 51 0;
#X connect 49 0 42 0;
#X connect 49 1 43 0;
#X connect 49 2 44 0;
#X connect 49 3 45 0;
#X connect 49 4 46 0;
#X connect 49 5 47 0;
#X connect 50 0 52 0;
#X connect 51 0 52 0;
#X connect 53 0 62 0;
#X connect 54 0 61 0;
#X connect 55 0 70 0;
#X connect 56 0 70 0;
#X connect 57 0 70 0;
#X connect 58 0 70 0;
#X connect 59 0 70 0;
#X connect 60 0 70 0;
#X connect 61 0 63 0;
#X connect 61 1 55 0;
#X connect 61 2 56 0;
#X connect 61 3 57 0;
#X connect 61 4 58 0;
#X connect 61 5 59 0;
#X connect 61 6 60 0;
#X connect 61 7 64 0;
#X connect 62 0 55 0;
#X connect 62 1 56 0;
#X connect 62 2 57 0;
#X connect 62 3 58 0;
#X connect 62 4 59 0;
#X connect 62 5 60 0;
#X connect 63 0 70 0;
#X connect 64 0 70 0;
#X connect 65 0 66 0;
#X connect 66 0 68 0;
#X connect 67 0 65 0;
#X connect 67 1 65 1;
#X connect 69 0 33 0;
#X connect 71 0 67 0;
#X connect 72 0 18 0;
#X restore 975 214 pd scale;
#X floatatom 975 238 5 0 0 0 - - - 0;
#X floatatom 1028 239 5 0 0 0 - - - 0;
#X obj 975 190 bng 20 250 50 0 empty empty empty 0 -10 0 12 #fcfcfc #000000 #000000;
#X obj 809 837 output~;
#X obj 769 757 bng 50 250 50 0 empty empty empty 0 -10 0 12 #ff0400 #000000 #000000;
#X text 767 739 mute/unmute;
#X obj 913 425 voice~;
#X obj 963 425 voice~;
#X obj 913 464 +~;
#X obj 975 297 - 12;
#X obj 1013 425 voice~;
#X obj 1063 425 voice~;
#X obj 1013 464 +~;
#X obj 913 530 +~;
#X obj 1264 724 delwrite~ doggo 1000;
#X obj 1361 498 delread4~ doggo 500;
#X obj 1360 638 *~;
#X obj 1378 556 - 0.01;
#X obj 1378 581 pack 0 20;
#X obj 542 229 phasor~;
#X obj 542 254 cos~;
#X obj 1378 606 line;
#X obj 995 677 +~;
#X obj 591 330 *~;
#X obj 612 230 hsl 170 20 0.01 1.01 1 0 empty empty empty -2 -10 0 12 #fcfcfc #000000 #000000 0 1;
#X obj 609 255 - 0.01;
#X obj 609 280 pack 0 20;
#X obj 609 305 line;
#X obj 993 571 s~ send-del;
#X obj 1012 646 r~ ret-del;
#X obj 1412 684 s~ ret-del;
#X obj 1265 621 r~ send-del;
#X obj 1627 180 osc~ 0.1;
#X obj 1627 427 +~;
#X obj 1628 321 *~;
#X obj 1646 246 - 0.01;
#X obj 1646 271 pack 0 20;
#X obj 1646 296 line;
#X obj 1459 800 hsl 170 20 0 1000 0 0 delay empty empty -2 -10 0 12 #fcfcfc #000000 #000000 0 1;
#X text 1455 779 Delay;
#X obj 1459 850 hsl 170 20 0.01 1.01 1 0 del-mod empty empty -2 -10 0 12 #fcfcfc #000000 #000000 0 1;
#X text 1455 829 Del-Mod;
#X obj 1646 219 r del-mod;
#X floatatom 1677 333 5 0 0 0 - - - 0;
#X obj 1694 354 r delay;
#X obj 1694 379 t b f;
#X obj 1627 351 *~;
#X obj 1627 105 mtof;
#X obj 1627 130 / 100;
#X floatatom 1627 155 5 0 0 0 - - - 0;
#X obj 1459 900 hsl 170 20 0 127 0 0 del-rate empty empty -2 -10 0 12 #fcfcfc #000000 #000000 0 1;
#X text 1455 879 Del-Rate;
#X obj 1627 79 r del-rate;
#X text 1249 499 Delay Tape Head;
#X text 1625 59 LFO;
#X obj 1028 297 - 12;
#X obj 1659 800 hsl 170 20 0.01 1.01 1 0 del-fdbk empty empty -2 -10 0 12 #fcfcfc #000000 #000000 0 1;
#X text 1655 779 Del-Fdbk;
#X obj 1378 529 r del-fdbk;
#X connect 0 0 1 0;
#X connect 1 0 2 0;
#X connect 2 0 23 0;
#X connect 3 0 4 0;
#X connect 3 1 5 0;
#X connect 4 0 10 0;
#X connect 4 0 13 0;
#X connect 5 0 11 0;
#X connect 5 0 59 0;
#X connect 6 0 3 0;
#X connect 8 0 7 0;
#X connect 10 0 12 0;
#X connect 11 0 12 1;
#X connect 12 0 17 0;
#X connect 13 0 14 0;
#X connect 14 0 16 0;
#X connect 15 0 16 1;
#X connect 16 0 17 1;
#X connect 17 0 26 0;
#X connect 17 0 32 0;
#X connect 19 0 20 0;
#X connect 20 0 18 0;
#X connect 20 0 34 0;
#X connect 21 0 22 0;
#X connect 22 0 25 0;
#X connect 23 0 24 0;
#X connect 24 0 27 0;
#X connect 25 0 20 1;
#X connect 26 0 7 0;
#X connect 26 0 7 1;
#X connect 28 0 29 0;
#X connect 29 0 30 0;
#X connect 30 0 31 0;
#X connect 31 0 27 1;
#X connect 33 0 26 1;
#X connect 35 0 18 0;
#X connect 36 0 38 0;
#X connect 37 0 19 0;
#X connect 38 0 50 0;
#X connect 39 0 40 0;
#X connect 40 0 41 0;
#X connect 41 0 38 1;
#X connect 41 0 47 0;
#X connect 46 0 39 0;
#X connect 48 0 49 0;
#X connect 49 0 37 0;
#X connect 49 0 50 0;
#X connect 49 1 37 1;
#X connect 49 1 50 1;
#X connect 50 0 37 0;
#X connect 51 0 52 0;
#X connect 52 0 53 0;
#X connect 53 0 36 0;
#X connect 56 0 51 0;
#X connect 59 0 15 0;
#X connect 62 0 21 0;
