#N canvas 0 32 1920 977 12;
#X obj 254 194 line~;
#X obj 254 219 phasor~;
#X obj 254 244 cos~;
#X obj 438 331 *~;
#X obj 486 229 bng 20 250 50 0 empty empty empty 0 -10 0 12 #fcfcfc #000000 #000000;
#X msg 486 254 1 10;
#X msg 554 283 0 200;
#X obj 554 254 del 10;
#X obj 486 298 line~;
#X obj 254 144 t f b;
#X obj 254 113 mtof;
#X obj 254 169 pack 0 10;
#X obj 254 83 inlet;
#X text 484 209 Simple Percussive Envelope;
#X text 253 63 Oscillator;
#X obj 438 356 outlet~;
#X connect 0 0 1 0;
#X connect 1 0 2 0;
#X connect 2 0 3 0;
#X connect 3 0 15 0;
#X connect 4 0 5 0;
#X connect 4 0 7 0;
#X connect 5 0 8 0;
#X connect 6 0 8 0;
#X connect 7 0 6 0;
#X connect 8 0 3 1;
#X connect 9 0 11 0;
#X connect 9 1 4 0;
#X connect 10 0 9 0;
#X connect 11 0 0 0;
#X connect 12 0 10 0;
